<svg width="35" height="35" viewBox="0 0 35 35" fill="none" xmlns="http://www.w3.org/2000/svg">
<path d="M17.4974 4.37306C21.122 4.37306 24.4031 5.84442 26.7768 8.21808C29.1556 10.5917 30.6218 13.8728 30.6218 17.4974C30.6218 21.122 29.1556 24.4031 26.7768 26.7767C25.5596 27.9973 24.1132 28.9654 22.5208 29.6252C20.9283 30.2851 19.2212 30.6238 17.4974 30.6218C15.7737 30.6238 14.0665 30.2851 12.4741 29.6252C10.8816 28.9654 9.43527 27.9973 8.21811 26.7767C6.99752 25.5596 6.02949 24.1132 5.36963 22.5208C4.70978 20.9283 4.37111 19.2212 4.37309 17.4974C4.37309 13.8728 5.84445 10.5917 8.21811 8.21808C9.43527 6.99749 10.8816 6.02946 12.4741 5.3696C14.0665 4.70975 15.7737 4.37108 17.4974 4.37306ZM26.0078 8.99221C24.8912 7.87345 23.5646 6.98636 22.1041 6.38193C20.6436 5.7775 19.0781 5.46764 17.4974 5.47017C15.9177 5.46832 14.3531 5.7785 12.8936 6.38291C11.434 6.98732 10.1082 7.87406 8.99224 8.99221C7.87348 10.1088 6.98639 11.4354 6.38196 12.8959C5.77753 14.3564 5.46768 15.9219 5.4702 17.5025C5.4702 20.8195 6.8134 23.8289 8.99224 26.0077C10.1088 27.1265 11.4355 28.0136 12.8959 28.618C14.3564 29.2225 15.922 29.5323 17.5026 29.5298C19.0823 29.5316 20.6469 29.2214 22.1064 28.617C23.566 28.0126 24.8918 27.1259 26.0078 26.0077C27.1265 24.8912 28.0136 23.5645 28.6181 22.104C29.2225 20.6436 29.5323 19.078 29.5298 17.4974C29.5317 15.9177 29.2215 14.3531 28.6171 12.8935C28.0127 11.434 27.1259 10.1082 26.0078 8.99221Z" fill="#090909"/>
<path d="M26.8998 9.89447C25.6079 10.6737 24.1212 11.2787 22.5216 11.6888C20.9272 12.099 19.2252 12.3143 17.4975 12.3143C15.6621 12.3143 13.8575 12.0733 12.1811 11.6119C10.5671 11.1836 9.0308 10.5037 7.62856 9.59712L8.23351 8.68457C9.45879 9.49972 10.8994 10.1303 12.4682 10.5609C14.0421 10.9967 15.7493 11.2274 17.4975 11.2274C19.1431 11.2274 20.7529 11.0223 22.2499 10.6378C23.6862 10.2783 25.0626 9.71184 26.3359 8.95629L26.8998 9.89447ZM26.3359 26.0436C25.0626 25.288 23.6862 24.7216 22.2499 24.362C20.6964 23.9694 19.0998 23.7731 17.4975 23.7776C15.7544 23.7776 14.0421 24.0032 12.4682 24.4389C10.9671 24.8365 9.53808 25.468 8.23351 26.3102L7.62856 25.4027C9.0308 24.4962 10.5671 23.8162 12.1811 23.388C15.5632 22.4681 19.1262 22.4416 22.5216 23.3111C24.1212 23.7212 25.6079 24.3261 26.8998 25.1054L26.3359 26.0436ZM4.92166 16.9539H30.0528V18.0459H4.92166V16.9539Z" fill="#090909"/>
<path d="M14.1907 5.45994C13.4136 7.19843 12.844 9.02244 12.4938 10.8942C12.0923 12.9721 11.8915 15.0838 11.8939 17.2001C11.8939 19.5225 12.1298 21.7936 12.5655 23.8853C13.0013 25.9719 13.6422 27.8944 14.4624 29.5247L13.4883 30.0117C12.5739 28.1369 11.9053 26.1518 11.4992 24.1058C11.0317 21.8354 10.7981 19.5232 10.802 17.2052C10.802 14.9597 11.0122 12.7501 11.4172 10.684C11.8273 8.61799 12.422 6.68522 13.1961 5.00879L14.1907 5.45994ZM21.7987 5.00879C22.5729 6.69035 23.1727 8.61799 23.5777 10.684C23.9878 12.7501 24.1929 14.9597 24.1929 17.2052C24.1929 19.5891 23.9571 21.932 23.5008 24.1058C23.0394 26.2897 22.3729 28.2994 21.5065 30.0117L20.5324 29.5196C21.3527 27.8944 21.9935 25.9719 22.4293 23.8853C22.8702 21.7936 23.1009 19.5276 23.1009 17.2052C23.1009 15.0264 22.8958 12.8885 22.5062 10.8942C22.156 9.02244 21.5864 7.19843 20.8093 5.45994L21.7987 5.00879ZM18.046 4.98828V30.0066H16.954V4.98828H18.046Z" fill="#090909"/>
</svg>
