<svg width="35" height="35" viewBox="0 0 35 35" fill="none" xmlns="http://www.w3.org/2000/svg">
<path d="M17.4974 4.37306C21.122 4.37306 24.4031 5.84442 26.7767 8.21808C29.1555 10.5917 30.6218 13.8728 30.6218 17.4974C30.6218 21.122 29.1555 24.4031 26.7767 26.7767C25.5596 27.9973 24.1132 28.9654 22.5208 29.6252C20.9283 30.2851 19.2212 30.6238 17.4974 30.6218C15.7737 30.6238 14.0665 30.2851 12.4741 29.6252C10.8816 28.9654 9.43524 27.9973 8.21808 26.7767C6.99749 25.5596 6.02946 24.1132 5.3696 22.5208C4.70975 20.9283 4.37108 19.2212 4.37306 17.4974C4.37306 13.8728 5.84442 10.5917 8.21808 8.21808C9.43524 6.99749 10.8816 6.02946 12.4741 5.3696C14.0665 4.70975 15.7737 4.37108 17.4974 4.37306ZM26.0077 8.99221C24.8912 7.87345 23.5645 6.98636 22.104 6.38193C20.6436 5.7775 19.078 5.46764 17.4974 5.47017C15.9177 5.46832 14.3531 5.7785 12.8935 6.38291C11.434 6.98732 10.1082 7.87406 8.99221 8.99221C7.87345 10.1088 6.98636 11.4354 6.38193 12.8959C5.7775 14.3564 5.46764 15.9219 5.47017 17.5025C5.47017 20.8195 6.81337 23.8289 8.99221 26.0077C10.1088 27.1265 11.4354 28.0136 12.8959 28.618C14.3564 29.2225 15.9219 29.5323 17.5025 29.5298C19.0823 29.5316 20.6469 29.2214 22.1064 28.617C23.566 28.0126 24.8918 27.1259 26.0077 26.0077C27.1265 24.8912 28.0136 23.5645 28.618 22.104C29.2225 20.6436 29.5323 19.078 29.5298 17.4974C29.5316 15.9177 29.2214 14.3531 28.617 12.8935C28.0126 11.434 27.1259 10.1082 26.0077 8.99221Z" fill="#E02A26"/>
<path d="M26.8998 9.89447C25.6079 10.6737 24.1211 11.2787 22.5216 11.6888C20.9272 12.099 19.2251 12.3143 17.4974 12.3143C15.6621 12.3143 13.8575 12.0733 12.181 11.6119C10.5671 11.1836 9.03077 10.5037 7.62853 9.59712L8.23348 8.68457C9.45876 9.49972 10.8994 10.1303 12.4681 10.5609C14.042 10.9967 15.7492 11.2274 17.4974 11.2274C19.1431 11.2274 20.7529 11.0223 22.2499 10.6378C23.6862 10.2783 25.0626 9.71184 26.3359 8.95629L26.8998 9.89447ZM26.3359 26.0436C25.0626 25.288 23.6862 24.7216 22.2499 24.362C20.6964 23.9694 19.0998 23.7731 17.4974 23.7776C15.7544 23.7776 14.042 24.0032 12.4681 24.4389C10.9671 24.8365 9.53805 25.468 8.23348 26.3102L7.62853 25.4027C9.03077 24.4962 10.5671 23.8162 12.181 23.388C15.5632 22.4681 19.1261 22.4416 22.5216 23.3111C24.1211 23.7212 25.6079 24.3261 26.8998 25.1054L26.3359 26.0436ZM4.92163 16.9539H30.0527V18.0459H4.92163V16.9539Z" fill="#E02A26"/>
<path d="M14.1907 5.45994C13.4135 7.19843 12.844 9.02244 12.4937 10.8942C12.0923 12.9721 11.8914 15.0838 11.8939 17.2001C11.8939 19.5225 12.1297 21.7936 12.5655 23.8853C13.0013 25.9719 13.6421 27.8944 14.4624 29.5247L13.4883 30.0117C12.5738 28.1369 11.9053 26.1518 11.4992 24.1058C11.0317 21.8354 10.7981 19.5232 10.8019 17.2052C10.8019 14.9597 11.0121 12.7501 11.4171 10.684C11.8273 8.61799 12.422 6.68522 13.1961 5.00879L14.1907 5.45994ZM21.7987 5.00879C22.5728 6.69035 23.1727 8.61799 23.5777 10.684C23.9878 12.7501 24.1929 14.9597 24.1929 17.2052C24.1929 19.5891 23.957 21.932 23.5008 24.1058C23.0394 26.2897 22.3729 28.2994 21.5065 30.0117L20.5324 29.5196C21.3527 27.8944 21.9935 25.9719 22.4293 23.8853C22.8702 21.7936 23.1009 19.5276 23.1009 17.2052C23.1009 15.0264 22.8958 12.8885 22.5062 10.8942C22.156 9.02244 21.5864 7.19843 20.8092 5.45994L21.7987 5.00879ZM18.046 4.98828V30.0066H16.954V4.98828H18.046Z" fill="#E02A26"/>
</svg>
