<svg width="74" height="72" viewBox="0 0 74 72" fill="none" xmlns="http://www.w3.org/2000/svg">
<rect x="0.5" y="0.5" width="73" height="71" rx="11.5" fill="white" stroke="#E02A26"/>
<path d="M36.0562 17.6741C35.9249 17.6905 35.4573 17.7479 35.0308 17.7972C31.446 18.1991 27.8448 19.6757 25.228 21.8085C21.7581 24.6468 19.5104 28.8057 18.8624 33.621C18.7229 34.6218 18.7229 37.378 18.8624 38.3788C19.3464 41.9307 20.7245 45.2284 22.8081 47.7714C25.6546 51.2577 29.7397 53.4479 34.7437 54.178C36.089 54.3749 38.4433 54.3831 39.6655 54.1862C43.6112 53.5464 47.0073 51.8647 49.78 49.1741C52.6429 46.4015 54.4147 43.0054 55.1366 38.8956C55.3909 37.4929 55.4073 34.7202 55.1858 33.3339C54.8741 31.439 54.3573 29.7573 53.6108 28.1659C53.2253 27.3292 53.0202 27.1159 52.6511 27.1159C52.3722 27.1159 52.0112 27.444 52.0112 27.7065C52.0112 27.7886 52.1999 28.2479 52.4296 28.7319C53.6354 31.2995 54.2179 34.31 53.9964 36.8858C53.6026 41.496 51.9702 45.2366 49.1073 48.1077C46.6054 50.6014 43.3651 52.2011 39.6245 52.7835C38.4843 52.9639 35.6706 52.9886 34.6616 52.8327C32.5862 52.5046 31.0194 52.037 29.4362 51.2741C24.1616 48.7475 20.9624 44.162 20.0929 37.8866C19.937 36.7628 19.9534 34.269 20.1257 33.2518C20.9378 28.5104 23.5464 24.5401 27.6069 21.8495C29.6659 20.4878 31.9136 19.5936 34.4155 19.1425C35.5558 18.9292 38.0495 18.8882 39.239 19.0522C41.0437 19.3065 42.8812 19.8643 44.3987 20.6272C45.1862 21.021 45.3257 21.0538 45.5964 20.8569C45.8671 20.6765 45.9491 20.3893 45.8425 20.0858C45.7687 19.8725 45.6292 19.7659 44.9237 19.4378C43.2913 18.6503 41.5276 18.1089 39.7476 17.83C38.9437 17.7069 36.5483 17.6003 36.0562 17.6741Z" fill="#E02A26"/>
<path d="M49.7562 18.6913C49.666 18.7241 48.452 19.9053 47.0574 21.2999L44.5227 23.8428L44.5801 24.3678C44.6047 24.6467 44.6703 25.4178 44.7195 26.0659L44.8098 27.2471L40.6262 31.4389C38.3211 33.744 36.418 35.7127 36.3852 35.8194C36.2539 36.2624 36.7379 36.7463 37.1809 36.6151C37.2875 36.5823 39.2562 34.6792 41.5613 32.3741L45.7531 28.1905L46.9344 28.2807C47.5824 28.3299 48.3535 28.3956 48.6324 28.4202L49.1574 28.4776L51.7004 25.9428C53.0949 24.5483 54.2762 23.326 54.3172 23.2194C54.3664 23.0881 54.35 22.9405 54.2762 22.7518C54.1285 22.3991 53.9316 22.3499 52.2172 22.2268C51.5035 22.1694 50.8965 22.1202 50.8883 22.1038C50.8801 22.0956 50.8145 21.4229 50.7488 20.6026C50.6914 19.7905 50.593 19.0522 50.5437 18.962C50.4781 18.8307 50.0023 18.5682 49.9285 18.6174C49.9203 18.6174 49.8465 18.6502 49.7562 18.6913ZM49.543 22.0135C49.6578 23.3506 49.6578 23.3424 51.1016 23.4655L52.1926 23.5557L50.4207 25.3276L48.6488 27.0995L47.4102 27.0092C46.7375 26.9518 46.1551 26.8944 46.1305 26.8616C46.1059 26.837 46.0402 26.2709 45.9828 25.6065L45.8926 24.3924L47.6562 22.6042C48.6324 21.628 49.4363 20.8651 49.4445 20.9225C49.4527 20.9799 49.502 21.4721 49.543 22.0135Z" fill="#E02A26"/>
<path d="M36.0977 23.5803C33.9074 23.8428 32.1273 24.4006 30.5605 25.3112C28.6082 26.4432 26.9676 28.1905 25.934 30.2494C25.491 31.119 24.9906 32.6119 24.802 33.6209C24.6051 34.7119 24.6051 37.2877 24.802 38.3787C25.6551 42.9233 28.7887 46.4834 33.1117 47.8041C36.4012 48.8131 39.3789 48.6326 42.3238 47.2627C43.6035 46.6721 44.6289 45.9338 45.7855 44.7854C47.6805 42.8822 48.7879 40.7905 49.2719 38.1737C49.477 37.0662 49.4852 34.876 49.2801 33.826C48.9848 32.3166 48.2055 30.2412 47.7871 29.8475C47.5 29.5768 47.1145 29.5932 46.8684 29.8803C46.6141 30.1838 46.6305 30.3233 47.016 31.0862C48.4188 33.8752 48.5254 37.1155 47.3113 40.0932C45.8676 43.6451 42.8816 46.1799 39.2148 46.9674C38.2305 47.1725 35.9418 47.1725 34.9082 46.9592C31.4383 46.2373 28.5672 44.0635 27.0086 40.9545C26.6641 40.2655 26.2211 38.9694 26.0406 38.0916C25.8273 37.058 25.8273 34.7694 26.0324 33.785C26.5 31.5947 27.4352 29.8967 29.084 28.2397C30.7082 26.6072 32.6523 25.549 34.9492 25.0487C35.9008 24.8436 37.7711 24.8026 38.7637 24.9584C39.748 25.1225 41.0113 25.5326 41.9137 25.9838C42.6766 26.3694 42.816 26.3858 43.1195 26.1315C43.3902 25.8936 43.423 25.508 43.1852 25.2455C42.8242 24.8354 40.8063 24.0561 39.3871 23.769C38.6242 23.6213 36.7047 23.5065 36.0977 23.5803Z" fill="#E02A26"/>
<path d="M35.8271 29.5687C33.2595 30.0363 31.3482 31.8 30.6756 34.3183C30.4377 35.2207 30.4377 36.7629 30.6673 37.6488C31.3564 40.2328 33.2513 41.9801 35.8927 42.4394C36.7869 42.5953 37.3857 42.5953 38.165 42.4476C41.0115 41.898 43.0787 39.7324 43.497 36.8695C43.6201 35.9836 43.4888 34.5152 43.2345 33.9902C42.9392 33.3832 42.3814 33.3094 42.0369 33.8262C41.9056 34.023 41.9056 34.0722 42.0533 34.589C42.2912 35.4258 42.2584 36.7383 41.9795 37.5996C41.4052 39.3387 40.0927 40.5937 38.3537 41.0449C37.6974 41.2172 36.2947 41.2172 35.6466 41.0449C34.7033 40.7906 33.9732 40.3722 33.3006 39.6996C31.2662 37.657 31.2498 34.3676 33.2677 32.3496C34.6213 30.9961 36.3849 30.4793 38.1896 30.9058C39.0345 31.1109 39.297 31.0617 39.4611 30.6597C39.5431 30.4711 39.5431 30.3644 39.4529 30.1676C39.3134 29.8312 38.8787 29.6344 37.9845 29.5277C37.1068 29.4129 36.6228 29.4211 35.8271 29.5687Z" fill="#E02A26"/>
</svg>
