<svg width="72" height="72" viewBox="0 0 72 72" fill="none" xmlns="http://www.w3.org/2000/svg">
<rect x="0.5" y="0.5" width="71" height="71" rx="11.5" fill="white" stroke="#E02A26"/>
<path d="M48.8192 15.1547C49.1216 15.4432 55 26.0302 55 26.2947C55 26.4149 54.938 26.5832 54.8682 26.6714C54.651 26.9358 52.3245 28.2903 52.0918 28.2903C51.7506 28.2903 51.6033 28.154 51.2233 27.4808C51.0294 27.1282 50.8278 26.8477 50.7735 26.8637C50.7269 26.8797 48.2686 28.3303 45.3139 30.0935C40.5755 32.9226 39.9551 33.3153 39.9939 33.4595C40.0249 33.5477 40.0637 33.8763 40.0869 34.1888C40.1567 35.1746 39.8078 36.0883 39.0788 36.8095L38.691 37.1942L43.0029 46.1543C45.6861 51.7323 47.3224 55.2106 47.3224 55.3548C47.3224 55.4831 47.2682 55.6594 47.2061 55.7555C47.0588 55.9719 46.6245 56.0681 46.3996 55.9399C46.2833 55.8838 44.8331 52.9585 41.8706 46.8596L37.5122 37.8674L37.4735 46.7394C37.4347 54.9781 37.4269 55.6273 37.3029 55.7716C37.0082 56.1322 36.4653 56.0521 36.2559 55.6193C36.1784 55.459 36.1551 53.4955 36.1551 46.6432L36.1473 37.8674L31.789 46.8436C28.369 53.8802 27.3841 55.8437 27.229 55.9319C26.849 56.1482 26.3061 55.8197 26.3061 55.3628C26.3061 55.2266 27.9967 51.6442 30.649 46.1703L34.9841 37.2023L34.6584 36.9218L34.3404 36.6493L33.1694 37.3465C32.5335 37.7312 31.9286 38.0678 31.8355 38.0999C31.5796 38.188 31.2229 37.9556 30.9902 37.5469C30.7963 37.2023 30.7731 37.1862 30.618 37.2904C30.5327 37.3465 29.3539 38.0518 28.0045 38.8532C26.469 39.7669 25.4763 40.3118 25.3445 40.3118C25.0265 40.3118 24.8714 40.1916 24.6465 39.7909C24.4449 39.4383 24.4371 39.4303 24.2278 39.5425C24.1114 39.6066 22.9559 40.2958 21.6531 41.0652C20.3502 41.8426 19.2024 42.4998 19.1016 42.5318C18.6829 42.644 18.5433 42.4917 17.7522 41.0732C17.3257 40.2878 17 39.6226 17 39.5024C17 39.3822 17.062 39.2139 17.1318 39.1257C17.2094 39.0295 18.4037 38.2842 19.7918 37.4587C21.18 36.6412 22.3433 35.936 22.382 35.9039C22.4131 35.8719 22.351 35.6795 22.2424 35.4872C21.9943 35.0464 21.9865 34.7499 22.2114 34.5174C22.3122 34.4213 23.5065 33.6759 24.8714 32.8665C26.2363 32.057 27.3841 31.3678 27.4151 31.3357C27.4539 31.3037 27.3918 31.0953 27.2833 30.8869C27.0351 30.4061 27.0273 30.1977 27.2522 29.9492C27.3841 29.797 39.1951 22.7042 45.942 18.7131L46.229 18.5448L45.8722 17.9036C45.469 17.1984 45.4147 16.8457 45.6551 16.5893C45.911 16.3408 48.1135 15.0505 48.3771 15.0104C48.5555 14.9784 48.6641 15.0184 48.8192 15.1547ZM47.1286 17.3827C47.1829 17.535 52.2004 26.5351 52.2857 26.6313C52.3478 26.7034 53.4645 26.0623 53.418 25.9821C53.2086 25.5894 48.8967 17.8716 48.5943 17.3346L48.1755 16.5973L47.6249 16.9259C47.2139 17.1663 47.0898 17.2785 47.1286 17.3827ZM37.6829 25.2208C32.7661 28.146 28.7257 30.5663 28.7024 30.5984C28.6637 30.6465 31.7657 36.2886 31.9131 36.4409C31.9363 36.4649 32.3473 36.2566 32.8204 35.9841C33.6735 35.4872 33.689 35.4792 33.6424 35.2307C33.5184 34.5255 33.5106 34.301 33.5882 33.8603C33.9216 31.9929 35.4959 30.7908 37.2796 31.0312C37.8457 31.1113 38.5902 31.464 38.9935 31.8406L39.2959 32.1211L44.7167 28.8833C47.7024 27.0961 50.1531 25.6375 50.1608 25.6215C50.1686 25.6135 49.4396 24.2831 48.5322 22.6722C47.082 20.0595 46.8804 19.7389 46.7563 19.811C46.6788 19.8511 42.5918 22.2875 37.6829 25.2208ZM35.9767 32.5459C35.271 32.9226 34.891 33.5637 34.8833 34.3812C34.8833 35.5433 35.6976 36.3688 36.8608 36.3848C37.6829 36.3848 38.5049 35.7436 38.722 34.9182C38.9624 33.9965 38.4506 32.8665 37.6363 32.5219C37.14 32.3055 36.4033 32.3215 35.9767 32.5459ZM24.4604 34.6777L23.5918 35.1987L23.7392 35.4471C23.8167 35.5914 24.2433 36.3527 24.6776 37.1462C25.1196 37.9396 25.5073 38.6208 25.5384 38.6529C25.5771 38.709 29.92 36.1924 30.0984 36.0241C30.1139 36.0081 29.6796 35.1987 29.1445 34.2289L28.1596 32.4658L26.7482 33.3153C25.9727 33.7801 24.9412 34.3892 24.4604 34.6777ZM20.7922 38.4445L18.551 39.7749L18.7992 40.2237C18.931 40.4721 19.0861 40.7366 19.1327 40.8087C19.2102 40.937 19.4506 40.8087 21.4669 39.6146C22.7 38.8773 23.7159 38.2762 23.7314 38.2602C23.7935 38.2201 23.1653 37.1061 23.08 37.1061C23.049 37.1061 22.0176 37.7072 20.7922 38.4445Z" fill="#E02A26"/>
</svg>
