<svg width="30" height="30" viewBox="0 0 30 30" fill="none" xmlns="http://www.w3.org/2000/svg">
<path d="M15 0C6.7155 0 0 6.7155 0 15C0 23.2845 6.7155 30 15 30C23.2845 30 30 23.2845 30 15C30 6.7155 23.2845 0 15 0Z" fill="url(#paint0_linear_456_1974)"/>
<path d="M17.0303 18.9759H20.9123L21.522 15.0324H17.0303V12.8769C17.0303 11.2389 17.5658 9.78618 19.098 9.78618H21.5603V6.34518C21.1275 6.28668 20.2125 6.15918 18.4838 6.15918C14.8733 6.15918 12.7568 8.06568 12.7568 12.4097V15.0332H9.04504V18.9767H12.756V29.8157C13.491 29.9252 14.2358 30.0002 15 30.0002C15.6908 30.0002 16.365 29.9372 17.0303 29.8472V18.9759Z" fill="white"/>
<defs>
<linearGradient id="paint0_linear_456_1974" x1="4.49475" y1="4.49475" x2="27.4612" y2="27.4612" gradientUnits="userSpaceOnUse">
<stop stop-color="#2AA4F4"/>
<stop offset="1" stop-color="#007AD9"/>
</linearGradient>
</defs>
</svg>
