<svg width="30" height="30" viewBox="0 0 30 30" fill="none" xmlns="http://www.w3.org/2000/svg">
<path d="M23.4783 30H6.52174C2.93478 30 0 27.0652 0 23.4783V6.52174C0 2.93478 2.93478 0 6.52174 0H23.4783C27.0652 0 30 2.93478 30 6.52174V23.4783C30 27.0652 27.0652 30 23.4783 30Z" fill="url(#paint0_radial_456_1941)"/>
<path d="M15 5.86961C18 5.86961 18.3261 5.86961 19.5 5.93483C20.6087 6.00004 21.1956 6.1957 21.5869 6.32613C22.1087 6.52178 22.5 6.78265 22.8913 7.17396C23.2826 7.56526 23.5435 7.95656 23.7391 8.4783C23.8695 8.86961 24.0652 9.45656 24.1304 10.5653C24.1304 11.674 24.1304 12 24.1304 15C24.1304 18 24.1304 18.3261 24.0652 19.5C24 20.6087 23.8043 21.1957 23.6739 21.587C23.4782 22.1087 23.2174 22.5 22.8261 22.8913C22.4348 23.2827 22.0435 23.5435 21.5217 23.7392C21.1304 23.8696 20.5435 24.0653 19.4348 24.1305C18.3261 24.1305 18 24.1305 15 24.1305C12 24.1305 11.6739 24.1305 10.5 24.0653C9.39129 24 8.80433 23.8044 8.41302 23.674C7.89129 23.4783 7.49998 23.2174 7.10868 22.8261C6.71737 22.4348 6.4565 22.0435 6.26085 21.5218C6.13042 21.1305 5.93476 20.5435 5.86955 19.4348C5.86955 18.3261 5.86955 18 5.86955 15C5.86955 12 5.86955 11.674 5.93476 10.5C5.99998 9.39135 6.19563 8.80439 6.32607 8.41309C6.52172 7.89135 6.78259 7.50004 7.17389 7.10874C7.5652 6.71743 7.9565 6.45656 8.47824 6.26091C8.86955 6.13048 9.4565 5.93483 10.5652 5.86961C11.6739 5.86961 12 5.86961 15 5.86961ZM15 3.91309C12 3.91309 11.6087 3.91309 10.4348 3.9783C9.26085 4.04352 8.47824 4.23917 7.76085 4.50004C7.04346 4.76091 6.39129 5.15222 5.80433 5.80439C5.21737 6.45656 4.82607 7.04352 4.49998 7.76091C4.23911 8.4783 4.04346 9.26091 3.97824 10.4348C3.91303 11.6087 3.91302 12 3.91302 15C3.91302 18 3.91303 18.3913 3.97824 19.5653C4.04346 20.7392 4.23911 21.5218 4.49998 22.2392C4.76085 22.9566 5.15216 23.6087 5.80433 24.1957C6.39129 24.7827 7.04346 25.174 7.76085 25.5C8.47824 25.7609 9.26085 25.9566 10.4348 26.0218C11.6087 26.087 12 26.087 15 26.087C18 26.087 18.3913 26.087 19.5652 26.0218C20.7391 25.9566 21.5217 25.7609 22.2391 25.5C22.9565 25.2392 23.6087 24.8479 24.1956 24.1957C24.7826 23.6087 25.1739 22.9566 25.5 22.2392C25.7609 21.5218 25.9565 20.7392 26.0217 19.5653C26.0869 18.3913 26.0869 18 26.0869 15C26.0869 12 26.0869 11.6087 26.0217 10.4348C25.9565 9.26091 25.7609 8.4783 25.5 7.76091C25.2391 7.04352 24.8478 6.39135 24.1956 5.80439C23.5435 5.21743 22.9565 4.82613 22.2391 4.50004C21.5217 4.23917 20.7391 4.04352 19.5652 3.9783C18.3913 3.91309 18 3.91309 15 3.91309Z" fill="white"/>
<path d="M15 9.13037C11.7391 9.13037 9.13043 11.7391 9.13043 14.9999C9.13043 18.2608 11.7391 20.8695 15 20.8695C18.2609 20.8695 20.8696 18.2608 20.8696 14.9999C20.8696 11.7391 18.2609 9.13037 15 9.13037ZM15 18.913C12.8478 18.913 11.087 17.1521 11.087 14.9999C11.087 12.8478 12.8478 11.0869 15 11.0869C17.1522 11.0869 18.913 12.8478 18.913 14.9999C18.913 17.1521 17.1522 18.913 15 18.913Z" fill="white"/>
<path d="M20.8696 10.4344C21.5899 10.4344 22.1739 9.8504 22.1739 9.13003C22.1739 8.40966 21.5899 7.82568 20.8696 7.82568C20.1492 7.82568 19.5652 8.40966 19.5652 9.13003C19.5652 9.8504 20.1492 10.4344 20.8696 10.4344Z" fill="white"/>
<defs>
<radialGradient id="paint0_radial_456_1941" cx="0" cy="0" r="1" gradientUnits="userSpaceOnUse" gradientTransform="translate(6.20147 36.0623) rotate(-49.945) scale(45.421 30.0044)">
<stop offset="0.073" stop-color="#EACC7B"/>
<stop offset="0.184" stop-color="#ECAA59"/>
<stop offset="0.307" stop-color="#EF802E"/>
<stop offset="0.358" stop-color="#EF6D3A"/>
<stop offset="0.46" stop-color="#F04B50"/>
<stop offset="0.516" stop-color="#F03E58"/>
<stop offset="0.689" stop-color="#DB359E"/>
<stop offset="0.724" stop-color="#CE37A4"/>
<stop offset="0.789" stop-color="#AC3CB4"/>
<stop offset="0.877" stop-color="#7544CF"/>
<stop offset="0.98" stop-color="#2B4FF2"/>
</radialGradient>
</defs>
</svg>
